<svg width="39" height="39" viewBox="0 0 39 39" fill="none" xmlns="http://www.w3.org/2000/svg">
<circle cx="19.7285" cy="19.0721" r="13.486" transform="rotate(45 19.7285 19.0721)" fill="#72A479"/>
<g clip-path="url(#clip0_69_466)">
<path d="M23.6035 21.1437L21.5311 19.0713L23.6035 16.999C24.1126 16.4898 24.1018 15.6455 23.5924 15.1361C23.0831 14.6268 22.2387 14.6159 21.7296 15.1251L19.6572 17.1974L17.5849 15.1251C17.0757 14.6159 16.2314 14.6268 15.722 15.1361C15.2127 15.6455 15.2018 16.4898 15.711 16.999L17.7833 19.0713L15.711 21.1437C15.2018 21.6528 15.2127 22.4972 15.722 23.0065C16.2314 23.5159 17.0757 23.5267 17.5849 23.0176L19.6572 20.9452L21.7296 23.0176C22.2387 23.5267 23.0831 23.5159 23.5924 23.0065C24.1018 22.4972 24.1126 21.6528 23.6035 21.1437Z" fill="white"/>
</g>
<defs>
<clipPath id="clip0_69_466">
<rect width="11.1304" height="11.1304" fill="white" transform="translate(19.6572 11.2009) rotate(45)"/>
</clipPath>
</defs>
</svg>
