<svg width="37" height="38" viewBox="0 0 37 38" fill="none" xmlns="http://www.w3.org/2000/svg">
<path d="M9 26.3871V34.7871H7.356V29.3391L4.992 33.2391H4.8L2.436 29.3511V34.7871H0.78V26.3871H2.484L4.896 30.3591L7.296 26.3871H9ZM12.2212 33.2031H15.7612V34.7871H10.5652V26.3871H15.7012V27.9711H12.2212V29.7591H15.4012V31.3191H12.2212V33.2031ZM21.7044 26.3871H23.3484V34.7871H21.7044V31.3071H18.5844V34.7871H16.9284V26.3871H18.5844V29.7231H21.7044V26.3871ZM32.0369 26.2191C33.2529 26.2191 34.2849 26.6431 35.1329 27.4911C35.9809 28.3311 36.4049 29.3631 36.4049 30.5871C36.4049 31.8031 35.9809 32.8351 35.1329 33.6831C34.2849 34.5311 33.2529 34.9551 32.0369 34.9551C30.9489 34.9551 30.0049 34.6071 29.2049 33.9111C28.4129 33.2151 27.9369 32.3311 27.7769 31.2591H26.5649V34.7871H24.9089V26.3871H26.5649V29.6751H27.8129C28.0209 28.6671 28.5129 27.8391 29.2889 27.1911C30.0729 26.5431 30.9889 26.2191 32.0369 26.2191ZM30.1049 32.5671C30.6249 33.0791 31.2689 33.3351 32.0369 33.3351C32.8049 33.3351 33.4489 33.0791 33.9689 32.5671C34.4889 32.0471 34.7489 31.3871 34.7489 30.5871C34.7489 29.7871 34.4889 29.1271 33.9689 28.6071C33.4489 28.0871 32.8049 27.8271 32.0369 27.8271C31.2609 27.8271 30.6129 28.0831 30.0929 28.5951C29.5809 29.1071 29.3249 29.7711 29.3249 30.5871C29.3249 31.3871 29.5849 32.0471 30.1049 32.5671Z" fill="white"/>
<rect x="5" y="14" width="25" height="3" rx="1.5" fill="#65906C"/>
<rect x="5" y="7" width="25" height="3" rx="1.5" fill="#65906C"/>
<rect x="5" width="25" height="3" rx="1.5" fill="#65906C"/>
</svg>
